<svg xmlns="http://www.w3.org/2000/svg" version="1.0" width="220.000000" height="242.000000" preserveAspectRatio="xMidYMid meet" style=""><rect id="backgroundrect" width="100%" height="100%" x="0" y="0" fill="none" stroke="none"/>
<metadata>
Created by potrace 1.15, written by Peter Selinger 2001-2017
</metadata>

<g class="currentLayer" style=""><title>Layer 1</title>
<path d="M95.48347562197563,30.97553296350742 c-18.595890226898938,3.4297884260086473 -34.282926116629326,11.70163110050009 -47.99609656328106,25.118156414004506 c-11.012091419280935,10.894622059086291 -17.660901332809047,21.183987337112235 -22.439733458157377,34.903141041146824 c-2.908854337168549,8.271842674491444 -3.4282926116629326,11.399002709969917 -3.8438432312584396,22.39450089923293 c-0.415550619595507,12.206011751383716 0.415550619595507,20.578730556051884 3.0127419920674257,29.556706141780403 l1.246651858786521,4.035045207068997 l1.662202478382028,-7.0613291123707445 c2.389416062674165,-9.482356236612143 5.609933364539344,-15.534924047215638 12.362630932966333,-22.798005419939834 c9.038225976202277,-9.684108496965592 23.6863853169439,-16.947189869689787 41.5550619595507,-20.477854425875158 c6.544922258629235,-1.412265822474149 23.27083469734839,-3.631540686362097 37.087892798899,-5.144682639012971 c3.4282926116629326,-0.4035045207068997 10.492653144786551,-1.5131419526508738 15.687035889730389,-2.521903254418123 c37.503443418494506,-7.464833633077644 53.6060299278204,-24.61377576312088 36.46456686950574,-38.83731011803909 c-2.2855284077752884,-1.9166464733577735 -4.4671691606517,-3.5306645561853722 -4.77883212534833,-3.5306645561853722 c-0.415550619595507,0 -0.5194382744943837,2.0175226035344984 -0.31166296469663024,4.539425857952621 c0.5194382744943837,6.35519620113367 -0.31166296469663024,8.776223325375067 -4.15550619595507,12.609516272090616 c-7.895461772314633,7.565709763254369 -18.18033960730343,10.289365278025942 -52.15160275923613,14.122658224741489 c-14.855934650539375,1.7148942130043237 -27.11467792860683,2.824531644948298 -27.322453238404584,2.622779384594848 c-0.7272135842921372,-0.7061329112370744 11.947080313370826,-4.741178118306071 26.17968903451694,-8.17096654431472 c21.920295183662994,-5.447311029543146 32.412948328449545,-10.793745928909566 36.880117489101245,-18.86383634304756 c1.8699777881797814,-3.5306645561853722 2.1816407528764117,-5.245558769189696 1.662202478382028,-8.473594934844893 c-1.1427642038876442,-5.7499394200733205 -7.791574117415756,-11.70163110050009 -15.167597615236005,-13.31564918332769 c-8.9343383213034,-2.1183987337112233 -26.387464344314694,-2.421027124241398 -35.633465630314724,-0.7061329112370744 z" id="svg_2" fill="#fccb7b" fill-opacity="1" stroke="#000000" stroke-opacity="1" stroke-width="5" opacity="1" class=""/>
<path d="M185.346297109504,75.76453476197327 c-5.298270399842714,7.868338153784544 -14.02483341134836,14.828791135978562 -25.660250760022556,20.27610216552171 c-12.570406242764086,5.95169168042677 -25.86802606982031,9.280603976258693 -50.38551262595522,12.71039240226734 c-23.99804828164053,3.3289122958319224 -35.11402735582034,5.850815550250045 -45.39890519080914,10.491117538379392 c-10.284877834988798,4.640301988129346 -17.8686766426068,11.600754970323365 -21.920295183662994,19.973473774991533 c-3.5321802665618094,7.263081372724194 -3.8438432312584396,19.87259764481481 -0.9349888940898907,28.245316449482978 c2.7010790273707954,7.464833633077644 9.453776595797784,16.84631373951306 15.583148234831512,21.48661572764241 c5.090495090044961,3.934169076892272 7.791574117415756,4.640301988129346 4.571056815550577,1.210513562120699 c-6.3371469488314816,-6.9604529821940195 -8.518787701707893,-26.429546106301927 -4.051618541056193,-36.11365460326752 c2.7010790273707954,-5.7499394200733205 10.180990180089921,-13.618277573857863 16.31036181912365,-17.048065999866512 c6.233259293932605,-3.5306645561853722 16.518137128921403,-6.35519620113367 34.07515080683157,-9.179727846081967 c16.93368774851691,-2.824531644948298 27.530228548202338,-5.245558769189696 40.62007306546081,-9.179727846081967 c4.4671691606517,-1.311389692297424 8.414900046809016,-2.320150994064673 8.62267535660677,-2.0175226035344984 c0.5194382744943837,0.5043806508836246 -9.453776595797784,6.35519620113367 -16.829800093618033,9.986736887495766 c-2.908854337168549,1.412265822474149 -12.985956862359593,5.043806508836246 -22.3358458032585,8.17096654431472 c-9.349888940898907,3.1271600354784725 -19.53087912098883,7.0613291123707445 -22.751396422854008,8.877099455551793 c-8.518787701707893,4.942930378659521 -16.206474164224772,13.013020792797516 -18.907553191595568,19.771721514638084 c-4.77883212534833,12.206011751383716 -1.9738654430786582,27.236555147715727 6.7526975684269885,36.0127784730908 c5.921596329235975,5.95169168042677 10.180990180089921,7.0613291123707445 29.192431026584366,7.0613291123707445 c13.193732172157347,0 16.829800093618033,-0.4035045207068997 23.89416062674165,-2.320150994064673 c43.21726443793273,-12.004259491030265 71.68248188022496,-52.152959301366785 67.0075374097755,-94.3191817152378 c-1.5583148234831512,-13.51740144368114 -7.376023497820249,-30.666343573724376 -12.674293897662963,-37.32416816538822 c-1.3505395136853977,-1.7148942130043237 -1.662202478382028,-1.5131419526508738 -4.77883212534833,3.2280361656551975 z" id="svg_3" fill="#8ae9e9" fill-opacity="1" stroke="#000000" stroke-opacity="1" stroke-width="5" opacity="1" class="" filter=""/>
</g><defs><filter id="f009" xmlns:inkscape="http://www.inkscape.org/namespaces/inkscape" inkscape:label="Roughen" inkscape:menu="ABCs" inkscape:menu-tooltip="Small-scale roughening to edges and content" color-interpolation-filters="sRGB">
            <feTurbulence numOctaves="3" seed="0" type="turbulence" baseFrequency=".04" result="result91"/>
            <feDisplacementMap scale="6.6" yChannelSelector="G" xChannelSelector="R" in="SourceGraphic" in2="result91"/>
        </filter></defs></svg>